<svg width="40" height="40" viewBox="0 0 40 40" fill="none" xmlns="http://www.w3.org/2000/svg">
<path d="M13.7971 4.06899C12.0249 4.39609 10.701 5.82097 10.0902 8.05054C9.90035 8.74219 9.87574 8.99439 9.87695 10.2553C9.86977 11.4023 9.90328 11.8009 10.028 12.2889C10.9924 16.0138 14.0752 17.6785 16.5748 15.8295C18.9917 14.0375 19.7165 9.76591 18.1398 6.61919C17.5422 5.42393 16.6635 4.59501 15.6029 4.23809C15.0561 4.05151 14.294 3.97903 13.7971 4.06899Z" fill="white"/>
<path d="M25.3102 4.06607C24.0763 4.27063 22.901 5.23168 22.2314 6.58273C20.4788 10.0824 21.5767 14.8485 24.4439 16.2205C26.8553 17.3734 29.471 15.6218 30.3375 12.2694C30.4613 11.7731 30.494 11.3826 30.4847 10.2355C30.4752 8.98276 30.4501 8.72246 30.2672 8.03117C29.5108 5.26601 27.5463 3.69785 25.3102 4.06607Z" fill="white"/>
<path d="M3.59248 12.5473C2.51594 12.7923 1.72158 13.6147 1.24246 14.9575C1.02768 15.5515 1.01123 15.6736 1.01248 16.9752C1.02187 18.1384 1.04704 18.4638 1.19667 19.025C1.7702 21.1314 2.81529 22.6353 4.16602 23.2848C4.69636 23.5365 4.80406 23.5608 5.53295 23.5601C6.22043 23.5595 6.37778 23.5349 6.78344 23.3311C7.32986 23.0703 8.00014 22.4107 8.28949 21.841C9.2981 19.8632 8.95535 16.5689 7.52873 14.5203C7.09741 13.8862 6.24352 13.0979 5.72974 12.8462C5.02536 12.4971 4.26324 12.3921 3.59248 12.5473Z" fill="white"/>
<path d="M35.382 12.533C34.7195 12.7045 34.1483 13.0549 33.536 13.6818C32.212 15.0335 31.5263 16.8564 31.5201 19.061C31.513 20.265 31.6877 21.062 32.1358 21.8832C33.0153 23.5012 34.954 24.02 36.5848 23.0585C37.8431 22.317 38.9512 20.4449 39.322 18.4434C39.4538 17.7274 39.4358 16.2224 39.2861 15.5067C39.0198 14.246 38.2153 13.116 37.2955 12.702C36.7569 12.4585 35.9616 12.3861 35.382 12.533Z" fill="white"/>
<path d="M18.5329 19.4314C17.415 19.6765 16.3221 20.1575 15.4778 20.7928C15.0061 21.1512 8.74979 26.9574 8.00508 27.7391C7.06178 28.7162 6.6156 29.8555 6.61694 31.2547C6.6195 33.923 8.4108 36.2235 10.8962 36.7336C12.114 36.9846 13.4557 36.845 15.7494 36.2327C18.0183 35.6285 18.4987 35.5467 19.7907 35.4885C21.323 35.4301 22.3254 35.5675 24.6865 36.1428C27.5614 36.8478 28.398 36.9527 29.5077 36.7157C31.9672 36.2009 33.7872 33.8807 33.7847 31.2612C33.7834 29.8457 33.3267 28.691 32.3898 27.7157C31.5855 26.8705 25.343 21.1088 24.8291 20.735C24.2075 20.272 23.0225 19.7199 22.2189 19.5092C21.2578 19.2579 19.4935 19.2189 18.5329 19.4314Z" fill="white"/>
</svg>
