<svg width="40" height="40" viewBox="0 0 40 40" fill="none" xmlns="http://www.w3.org/2000/svg">
<g clip-path="url(#clip0_4_733)">
<path d="M17.4219 0.117188C13.9531 0.546875 10.7656 1.83594 7.89062 3.96875C6.71875 4.84375 4.76562 6.79688 3.89062 7.96875C2.02344 10.4844 0.859375 13.1172 0.21875 16.2578C0.046875 17.0938 0.0390625 17.3281 0.0390625 20C0.0390625 22.6719 0.046875 22.9062 0.21875 23.7422C0.859375 26.8828 2.02344 29.5156 3.89062 32.0312C4.76562 33.2031 6.71875 35.1562 7.89062 36.0312C10.7969 38.1875 13.9766 39.4609 17.5 39.8906C18.7109 40.0312 21.1328 40.0312 22.3437 39.8828C25.0312 39.5469 27.7266 38.6562 29.8984 37.375C30.7969 36.8438 31.0469 36.5 31.0391 35.7656C31.0312 34.8516 30.3828 34.2188 29.4453 34.2188C29.0781 34.2188 28.8984 34.2734 28.4609 34.5078C26.3281 35.6562 24.8594 36.1953 22.8125 36.5859C21.5937 36.8125 18.3516 36.8359 17.1875 36.6172C13.5469 35.9375 10.5781 34.3906 8.05469 31.8672C5.53125 29.3438 3.98437 26.375 3.30469 22.7344C3.10937 21.6719 3.10937 18.3281 3.30469 17.2656C3.98437 13.625 5.53125 10.6562 8.05469 8.13281C10.5781 5.60938 13.5469 4.0625 17.1875 3.38281C18.2578 3.1875 21.5937 3.1875 22.6562 3.38281C25.0625 3.83594 27.4062 4.75 29.0469 5.875C30.1094 6.60938 31.0312 6.5625 31.6719 5.75781C31.8828 5.49219 31.9141 5.38281 31.9375 4.89844C31.9687 4.11719 31.8047 3.84375 30.9375 3.26562C28.4453 1.59375 25.4219 0.484375 22.3047 0.117188C21.1562 -0.0234375 18.5547 -0.0234375 17.4219 0.117188Z" fill="#EE3342"/>
<path d="M37.6094 3.35937C37.3437 3.49219 35.9062 5.24219 29.0547 13.7734C24.5234 19.4062 20.7187 24.1172 20.5937 24.2344C20.4219 24.4062 20.2969 24.4531 20.0312 24.4531C19.6328 24.4531 20.1094 24.875 14.8203 19.8438C12.8516 17.9766 11.0937 16.3672 10.9141 16.2656C10.6406 16.1094 10.5 16.0859 10.0703 16.1094C9.42187 16.1406 8.99219 16.4062 8.74219 16.9297C8.51562 17.3984 8.55469 18.1562 8.82812 18.5391C9.14062 18.9688 17.3359 26.7031 17.8359 27.0391C19.0937 27.875 20.9609 27.875 22.2344 27.0391C22.4844 26.875 22.8203 26.6016 22.9766 26.4375C23.5156 25.8594 39.6484 5.74219 39.7891 5.46875C40 5.05469 39.9453 4.26562 39.6719 3.85156C39.2656 3.24219 38.3125 3.01562 37.6094 3.35937Z" fill="#EE3342"/>
<path d="M37.0078 13.9922C36.6328 14.1953 36.2734 14.6875 36.2109 15.1094C36.1719 15.3281 36.2266 15.7578 36.3594 16.4141C36.6641 17.8906 36.7422 18.8516 36.6953 20.5078C36.6172 23.5547 35.8516 26.1328 34.2422 28.7656C33.7656 29.5469 33.7109 29.6797 33.6875 30.125C33.625 31.0938 34.1641 31.7188 35.125 31.7812C35.8906 31.8359 36.2188 31.6406 36.7734 30.7969C38.4219 28.2969 39.4844 25.2578 39.8516 22.0391C39.9844 20.8281 39.9062 17.9453 39.6953 16.7578C39.3281 14.6562 39.1797 14.3203 38.4609 13.9531C38.1094 13.7734 37.3828 13.7969 37.0078 13.9922Z" fill="#EE3342"/>
</g>
<defs>
<clipPath id="clip0_4_733">
<rect width="40" height="40" fill="white"/>
</clipPath>
</defs>
</svg>
