<svg width="20" height="20" viewBox="0 0 20 20" fill="none" xmlns="http://www.w3.org/2000/svg">
<g clip-path="url(#clip0_4_812)">
<path d="M8.16406 0.132812C6.91406 0.351562 5.51562 0.929688 4.36719 1.67969C3.61719 2.17188 2.16406 3.625 1.67969 4.375C0.507812 6.16406 0 7.86719 0 10C0 12.8281 0.929688 15.0781 2.92969 17.0703C4.91406 19.0547 7.1875 20 10 20C12.8203 20 15.0781 19.0625 17.0703 17.0703C19.0625 15.0859 20 12.8203 20 10C20 7.1875 19.0625 4.91406 17.0703 2.92969C15.5234 1.375 13.8359 0.484375 11.7578 0.125C10.8828 -0.03125 9.03125 -0.0234375 8.16406 0.132812ZM11.5547 1.76562C14.8047 2.34375 17.5391 5.01562 18.2031 8.27344C18.625 10.3516 18.2656 12.4766 17.1641 14.3438C16.6016 15.3125 15.3125 16.6016 14.3438 17.1641C12.9453 17.9922 11.6094 18.3594 10.0391 18.3672C6 18.3906 2.51562 15.5234 1.76562 11.5625C1.60938 10.7344 1.60938 9.26562 1.76562 8.4375C2 7.1875 2.61719 5.8125 3.35938 4.88281C5.38281 2.34375 8.38281 1.20312 11.5547 1.76562Z" fill="black"/>
<path d="M8.99207 4.22652C6.96863 4.56246 5.16394 6.09371 4.47644 8.05465C3.73426 10.1875 4.27332 12.539 5.88269 14.1484C7.63269 15.8984 10.2968 16.3437 12.5546 15.2656C13.0468 15.0312 14.0624 14.3046 14.1249 14.1562C14.1327 14.125 13.8827 13.8437 13.578 13.539L13.0077 12.9687L12.6561 13.2578C10.5389 14.9531 7.44519 14.2734 6.24988 11.8515C5.77332 10.8828 5.67176 10.0546 5.89832 9.07027C6.41394 6.89058 8.60144 5.45308 10.7889 5.85933C11.2889 5.95308 12.3514 6.4609 12.7343 6.79683L13.0077 7.03121L13.5936 6.44527L14.1718 5.86715L13.8671 5.5859C12.6171 4.47652 10.7186 3.94527 8.99207 4.22652Z" fill="black"/>
</g>
<defs>
<clipPath id="clip0_4_812">
<rect width="20" height="20" fill="white"/>
</clipPath>
</defs>
</svg>
