<svg width="43" height="43" viewBox="0 0 43 43" fill="none" xmlns="http://www.w3.org/2000/svg">
<g clip-path="url(#clip0_4_798)">
<path d="M19.0225 0.596287C12.6984 1.35215 6.9959 4.98867 3.61133 10.4141C2.09121 12.8496 1.01621 15.8898 0.629883 18.8377C0.461914 20.1479 0.461914 22.8521 0.629883 24.1623C1.24297 28.8318 3.30898 33.0479 6.63477 36.3652C9.34746 39.0863 12.7488 41.018 16.3938 41.9082C18.3506 42.3869 18.9889 42.4541 21.542 42.4541C23.6248 42.4541 24.0195 42.4289 24.9686 42.2609C27.2361 41.8494 29.1762 41.2027 31.1162 40.1949C33.199 39.1199 34.7359 38.0029 36.3652 36.3652C38.0785 34.6604 39.1787 33.1318 40.3209 30.8643C41.3959 28.7311 42.051 26.5811 42.3701 24.1623C42.5381 22.8521 42.5381 20.1479 42.3701 18.8377C41.757 14.1682 39.6826 9.95215 36.3652 6.63476C34.61 4.87109 32.9051 3.66172 30.6123 2.55312C28.7395 1.64609 27.1605 1.14219 24.9686 0.747459C24.1707 0.604686 23.566 0.562693 21.8359 0.537498C20.6602 0.5291 19.392 0.554295 19.0225 0.596287ZM28.983 9.00312C32.1408 9.86816 33.8793 11.909 34.3412 15.3104C34.4672 16.2006 34.4672 26.7994 34.3412 27.6896C33.8793 31.091 32.1492 33.1234 28.983 33.9969L28.1768 34.2236H21.5H14.8232L14.017 33.9969C10.8676 33.1318 9.07871 31.0406 8.65039 27.7148C8.54961 26.8918 8.54961 16.1082 8.65039 15.2852C9.1207 11.699 11.1867 9.50703 14.7309 8.85195C15.1928 8.76797 16.7801 8.75117 21.752 8.75957L28.1768 8.77637L28.983 9.00312Z" fill="#EE3342"/>
<path d="M15.999 11.086C13.6895 11.2371 12.2617 12.0602 11.4723 13.7063C10.876 14.9744 10.876 14.966 10.876 21.584C10.8844 27.4461 10.8844 27.5133 11.0691 28.1768C11.3379 29.151 11.7074 29.8313 12.2785 30.4527C12.8328 31.0406 13.5887 31.469 14.4873 31.7041C15.3775 31.9393 17.7207 32.0149 22.6758 31.9729C28.034 31.9309 28.3279 31.9057 29.5289 31.3262C30.7551 30.7383 31.6117 29.5709 31.9729 28.0088C32.1156 27.3873 32.124 26.8666 32.124 21.5C32.124 16.1334 32.1156 15.6127 31.9729 14.9912C31.6117 13.4291 30.7551 12.2617 29.5289 11.6738C28.3027 11.086 28.0844 11.0692 22.2559 11.044C19.4172 11.0272 16.6037 11.0524 15.999 11.086ZM29.0166 13.5971C29.151 13.6727 29.3525 13.8742 29.4617 14.0338C29.6297 14.269 29.6549 14.4033 29.6297 14.8065C29.5961 15.1928 29.5457 15.3356 29.3441 15.5455C28.8822 16.041 28.3531 16.1586 27.7988 15.8731C26.707 15.3188 26.8582 13.7986 28.0424 13.4291C28.3195 13.3451 28.6891 13.4123 29.0166 13.5971ZM23.1377 14.9156C25.7916 15.6295 27.7148 17.7123 28.1768 20.3662C28.3363 21.2901 28.3363 21.71 28.1768 22.6338C27.7148 25.2625 25.842 27.3201 23.2133 28.0676C22.3482 28.3111 20.7357 28.3279 19.9043 28.1012C17.1748 27.3537 15.2936 25.3045 14.8148 22.5834C14.1682 18.8797 16.7717 15.3692 20.6182 14.7477C21.0885 14.6805 22.6254 14.7729 23.1377 14.9156Z" fill="#EE3342"/>
<path d="M20.6181 17.1328C19.5851 17.3428 18.6109 17.9643 17.9474 18.8293C16.7716 20.383 16.7632 22.5834 17.9306 24.1455C19.4087 26.1276 22.2222 26.5307 24.1707 25.0526C26.5306 23.2469 26.5306 19.7532 24.1707 17.9475C23.1712 17.1916 21.8443 16.8893 20.6181 17.1328Z" fill="#EE3342"/>
</g>
<defs>
<clipPath id="clip0_4_798">
<rect width="43" height="43" fill="white"/>
</clipPath>
</defs>
</svg>
