<svg width="43" height="43" viewBox="0 0 43 43" fill="none" xmlns="http://www.w3.org/2000/svg">
<g clip-path="url(#clip0_4_803)">
<path d="M18.7706 0.126038C14.8905 0.629944 11.338 2.11647 8.23056 4.51842C7.24794 5.28268 5.57665 6.92877 4.762 7.93658C2.44403 10.8089 0.907118 14.2018 0.25204 17.8971C0.0168837 19.2073 -0.0754991 22.3567 0.0756727 23.7928C0.764345 30.226 4.31688 36.0126 9.78427 39.5819C12.5054 41.354 15.5708 42.471 18.8966 42.8825C20.1731 43.0421 22.8606 43.0337 24.1876 42.8741C33.9298 41.6647 41.6647 33.9298 42.8741 24.1876C43.0421 22.827 43.0421 20.1731 42.8741 18.8126C42.1015 12.5641 38.5993 6.96237 33.2999 3.47702C30.5368 1.66295 27.463 0.537563 24.1876 0.126038C22.911 -0.0251312 19.98 -0.0251312 18.7706 0.126038ZM24.3808 8.56647C30.2009 9.70026 34.4841 14.6553 34.7444 20.5762C34.9124 24.3555 33.5099 27.7821 30.7132 30.4528C26.9507 34.0473 21.3237 34.9796 16.6206 32.7792L15.8143 32.4012L12.4634 33.2831C10.6241 33.7618 9.10399 34.1481 9.0872 34.1397C9.0704 34.1313 9.46513 32.6532 9.95224 30.8643L10.8509 27.6057L10.4225 26.7155C9.55751 24.8762 9.24677 23.5913 9.17958 21.5421C9.14599 20.3411 9.16278 19.9548 9.30556 19.1065C10.2966 13.3284 14.9157 9.00319 20.7862 8.36491C21.5337 8.28932 23.4989 8.3901 24.3808 8.56647Z" fill="#EE3342"/>
<path d="M20.509 10.4981C16.4441 11.0692 13.068 13.8911 11.7578 17.7879C11.4051 18.8377 11.2539 19.8456 11.2539 21.1221C11.2539 23.2553 11.7326 25.0022 12.816 26.7995L13.0932 27.2614L12.5557 29.2266C12.2617 30.31 12.0266 31.2002 12.0434 31.217C12.0518 31.2254 12.9672 30.9987 14.0674 30.7131L16.0746 30.184L16.8557 30.5872C18.5605 31.4858 20.0135 31.8469 21.9619 31.8469C23.3477 31.8469 24.4227 31.679 25.548 31.2758C28.7311 30.1336 31.1834 27.5805 32.1996 24.3555C32.5691 23.1881 32.6951 22.2055 32.6447 20.7442C32.5859 19.0309 32.3004 17.8719 31.5865 16.419C30.1084 13.4459 27.5133 11.3967 24.2715 10.6577C23.4484 10.4645 21.3488 10.3805 20.509 10.4981ZM18.5102 15.47C18.7285 15.7975 19.7363 18.3002 19.7363 18.4934C19.7363 18.6026 19.5096 18.9889 19.2324 19.3584C18.9301 19.7616 18.7285 20.1143 18.7285 20.2403C18.7285 20.761 20.215 22.5415 21.2816 23.3057C21.9283 23.7592 23.0789 24.3471 23.4568 24.4143C23.7172 24.4563 23.7676 24.4143 24.1539 23.9692C24.3891 23.692 24.6998 23.3141 24.851 23.1125C25.0273 22.8942 25.1953 22.7598 25.3045 22.7598C25.4053 22.7598 26.1359 23.079 26.9254 23.4653C27.95 23.9608 28.3867 24.2211 28.4287 24.3471C28.4875 24.5487 28.3615 25.3129 28.1936 25.7161C27.8996 26.4215 26.6818 27.1774 25.6824 27.2698C24.9854 27.3286 24.3135 27.2026 23.2637 26.8163C22.2055 26.4215 21.2816 25.9596 20.5006 25.4221C19.7111 24.8846 17.8383 23.037 17.1664 22.1299C15.9234 20.4418 15.4951 19.434 15.4951 18.1827C15.5035 17.3008 15.6799 16.7885 16.2426 16.0495C16.7297 15.4028 16.9564 15.2852 17.7375 15.2852C18.317 15.2852 18.401 15.302 18.5102 15.47Z" fill="#EE3342"/>
</g>
<defs>
<clipPath id="clip0_4_803">
<rect width="43" height="43" fill="white"/>
</clipPath>
</defs>
</svg>
