<svg width="53" height="53" viewBox="0 0 53 53" fill="none" xmlns="http://www.w3.org/2000/svg">
<path d="M19.5231 0.227734C18.7674 3.975 17.5667 6.95625 15.6516 9.87539C14.544 11.5627 13.7676 12.4529 11.2418 14.958C8.70571 17.4838 8.03286 18.3016 7.15298 19.9889C5.03091 24.057 4.97915 28.9533 7.01841 33.5908C7.37036 34.3879 7.87759 35.3299 7.919 35.2781C7.9397 35.2574 8.05357 34.7709 8.16743 34.2016C8.2813 33.6322 8.57114 32.5764 8.79888 31.8518C10.2377 27.3695 12.6186 23.643 16.0553 20.5168C19.4299 17.432 21.0137 14.8959 21.7487 11.3453C22.0178 10.1031 22.0696 7.46347 21.8522 6.21094C21.5417 4.36836 20.8688 2.28769 20.0924 0.745312C19.7301 0.0207024 19.5852 -0.103516 19.5231 0.227734Z" fill="#EE3342"/>
<path d="M33.4976 5.2793C33.4769 5.36211 33.3941 5.75547 33.3216 6.15918C32.8144 9.13008 31.2099 13.2396 29.4087 16.2002C27.7732 18.8916 26.2619 20.641 22.4628 24.2744C20.5892 26.0549 19.3988 27.649 18.3429 29.7607C15.8171 34.833 15.9931 40.9611 18.8191 46.6545C19.14 47.2963 19.4195 47.7932 19.4505 47.7725C19.4816 47.7414 19.6058 47.1928 19.7404 46.5406C20.5375 42.576 22.4007 38.3215 24.8541 34.8848C26.0134 33.2492 27.1521 31.9656 28.8084 30.4129C30.8787 28.4668 31.7585 27.5559 32.5556 26.5518C36.4375 21.6037 37.4312 15.7033 35.4334 9.36816C34.9054 7.71191 33.6115 4.9584 33.4976 5.2793Z" fill="#EE3342"/>
<path d="M44.9775 18.0738C44.5531 20.5893 43.3627 23.8189 42.017 26.1687C40.5884 28.6635 39.0978 30.5061 36.8826 32.5557C35.1849 34.1187 34.3775 35.009 33.5494 36.2305C32.4003 37.9074 31.6757 39.6051 31.241 41.6547C30.9822 42.8969 30.9304 45.5262 31.1478 46.7891C31.4584 48.6316 32.1312 50.7123 32.9076 52.2547C33.2699 52.9793 33.4148 53.1035 33.4769 52.7723C34.2222 49.0457 35.392 46.1266 37.2863 43.1971C38.3732 41.5305 39.222 40.5471 41.7582 38.042C44.2943 35.5162 44.9671 34.6984 45.847 33.0111C47.7621 29.3467 48.0002 25.0404 46.5095 20.7652C46.1783 19.8025 45.3398 17.9807 45.1328 17.7633C45.081 17.7115 45.0086 17.8564 44.9775 18.0738Z" fill="#EE3342"/>
</svg>
