<svg width="53" height="53" viewBox="0 0 53 53" fill="none" xmlns="http://www.w3.org/2000/svg">
<g clip-path="url(#clip0_4_111)">
<path d="M42.4725 7.37031L35.1954 14.6475V8.25019C35.1954 4.74101 35.1747 1.86328 35.154 1.86328C35.0608 1.86328 34.2327 2.22559 33.2079 2.71211L32.0899 3.25039V10.4965V17.7529L30.5475 19.3057L29.0051 20.8584L29.0879 21.7383C29.1397 22.2248 29.1811 23.1564 29.1811 23.8086L29.1915 24.999L33.9842 20.2062L38.7667 15.4238H44.6877H50.6088L50.7848 14.8234C50.8883 14.5025 50.9711 14.1816 50.9815 14.1299C51.1989 13.1361 51.3438 12.3908 51.3438 12.3598C51.3438 12.3391 49.2114 12.3184 46.6131 12.3184H41.8721L46.8823 7.3082L51.8924 2.29805L51.8303 1.71836C51.7372 0.766014 51.2506 0.310547 50.2051 0.155273L49.7393 0.0931625L42.4725 7.37031Z" fill="#159640"/>
<path d="M40.5781 33.9635C39.0771 34.1084 37.6072 34.7709 36.7791 35.7025C36.3443 36.1891 35.8164 37.3898 35.6508 38.2697C35.423 39.4912 35.4851 48.3211 35.7336 49.1182C36.541 51.7682 38.4457 53.0103 41.6961 53C44.698 52.9896 46.5406 51.8199 47.3791 49.408L47.6586 48.6006L47.7 43.932C47.7414 38.7148 47.6896 38.0213 47.1203 36.8412C46.0851 34.6984 43.7457 33.6633 40.5781 33.9635ZM42.8141 37.1518C43.6525 37.5348 44.0459 38.1145 44.2012 39.2014C44.3254 40.0812 44.3357 46.8201 44.2115 47.6896C44.0562 48.7559 43.6629 49.3666 42.8762 49.76C42.3586 50.0187 40.7748 50.0187 40.3193 49.7703C39.543 49.3355 39.2117 48.8594 39.0357 47.876C38.8598 46.9443 38.8908 39.6568 39.0668 38.8908C39.3773 37.5658 40.1744 36.9551 41.6133 36.9551C42.1412 36.9551 42.5242 37.0172 42.8141 37.1518Z" fill="#EE3342"/>
<path d="M26.0859 35.3816V36.7998L26.707 36.924C27.9078 37.1517 28.4875 37.7935 28.6945 39.0978C28.8188 39.9467 29.0258 40.2055 29.7193 40.3711C30.2369 40.4953 31.1479 40.4332 31.4895 40.2572C31.8725 40.0502 32.007 39.5637 31.9656 38.5699C31.9346 37.7832 31.8725 37.514 31.6033 36.924C30.8373 35.2885 29.0568 34.243 26.6863 34.0256L26.0859 33.9635V35.3816Z" fill="#EE3342"/>
<path d="M29.4502 46.4164C28.9533 46.6338 28.798 46.8926 28.6945 47.6793C28.6324 48.083 28.4979 48.6006 28.3736 48.8283C28.1459 49.2838 27.5766 49.8221 27.4213 49.7289C27.3695 49.6979 27.3281 49.7186 27.3281 49.7807C27.3281 49.8324 27.0486 49.9359 26.707 50.0084L26.0859 50.1326V51.5094V52.8965H26.6346C26.9244 52.8965 27.5041 52.8033 27.8975 52.6998C29.8643 52.1822 31.1064 51.1781 31.7068 49.6461C31.8932 49.1596 32.1209 47.0996 31.9863 47.0996C31.9553 47.0996 31.8621 46.965 31.7586 46.7994C31.4791 46.3025 30.1852 46.0955 29.4502 46.4164Z" fill="#EE3342"/>
<path d="M42.3896 7.37031L35.1436 14.6475L42.4207 7.40137C49.1803 0.662499 49.7289 0.103515 49.6564 0.103515C49.6461 0.103515 46.375 3.37461 42.3896 7.37031Z" fill="#409640"/>
<path d="M34.7812 1.91504C34.6363 1.99785 34.5742 2.05996 34.6259 2.05996C34.688 2.05996 34.8433 1.99785 34.9882 1.91504C35.1332 1.83223 35.2056 1.77012 35.1435 1.77012C35.0918 1.77012 34.9261 1.83223 34.7812 1.91504Z" fill="#409640"/>
<path d="M32.4004 3.00195C32.2037 3.11582 32.0899 3.19863 32.1416 3.19863C32.2037 3.19863 32.4108 3.11582 32.6074 3.00195C32.8041 2.88808 32.9283 2.80527 32.8662 2.80527C32.8145 2.80527 32.5971 2.88808 32.4004 3.00195Z" fill="#409640"/>
<path d="M30.4853 19.2539C29.6365 20.1027 28.9636 20.8066 28.9844 20.8066C29.0154 20.8066 29.74 20.1027 30.5888 19.2539C31.4377 18.3947 32.1105 17.7012 32.0898 17.7012C32.0588 17.7012 31.3342 18.3947 30.4853 19.2539Z" fill="#409640"/>
<path d="M43.6318 0.0724602C40.5885 0.331249 37.8039 0.879882 35.6404 1.63555L35.1953 1.79082V8.16738V14.5439L42.4414 7.29785C46.4268 3.3125 49.6875 0.0414066 49.6875 0.0310555C49.6875 -0.0103512 44.1184 0.0310545 43.6318 0.0724602Z" fill="#40C16B"/>
<path d="M31.3136 3.67481C29.0983 5.15508 27.6284 6.87344 26.3552 9.41993L25.7651 10.6104L26.5829 12.2148C27.7216 14.4611 28.4048 16.6867 28.8396 19.5438L29.0155 20.7238L30.5579 19.1814L32.0899 17.6494L32.0692 10.424L32.0382 3.18829L31.3136 3.67481Z" fill="#C1EC40"/>
<path d="M1.22156 8.32266C1.20085 9.90645 1.22156 11.2211 1.27331 11.2522C1.31472 11.2729 1.34578 11.4799 1.34578 11.6973C1.34578 12.3287 1.64597 14.5336 1.91511 15.8897C2.1739 17.1732 2.8571 19.6576 2.99167 19.8025C3.03308 19.844 5.89011 19.8647 9.34753 19.8543L15.6309 19.8232L8.4366 12.6289L1.25261 5.44493L1.22156 8.32266Z" fill="#C1EC40"/>
<path d="M4.56514 23.2082C4.77217 23.6223 5.57959 24.7195 6.10752 25.3199C8.60225 28.1666 12.7636 30.0609 18.1153 30.7855C20.4962 31.1064 24.906 31.2203 26.3862 30.9926L26.7382 30.9305L22.7632 26.9555L18.7882 22.9805H11.6146H4.44092L4.56514 23.2082Z" fill="#40C16B"/>
<path d="M29.1086 23.3945C29.1086 23.5912 29.1293 23.674 29.1604 23.5705C29.1811 23.4774 29.1811 23.3117 29.1604 23.2082C29.1293 23.115 29.1086 23.1979 29.1086 23.3945Z" fill="#96C140"/>
<path d="M8.38477 8.11562L13.4053 13.1465L13.4363 8.46757C13.4467 5.90038 13.426 3.75761 13.3742 3.70585C13.3328 3.66445 12.5771 3.52988 11.6973 3.40566C10.4447 3.24003 9.36816 3.17792 6.72852 3.13652L3.36426 3.08476L8.38477 8.11562Z" fill="#C1EC40"/>
<path d="M16.5625 10.3723V16.3037L22.8148 22.556L29.0568 28.798L29.1293 26.6967C29.2328 23.7775 28.9947 20.1752 28.5807 18.1152C27.9389 15.0098 26.9762 12.5564 25.5062 10.3205C24.8334 9.30604 23.1357 7.63944 22.0074 6.89413C20.6514 6.00389 18.0738 4.81347 16.8523 4.51327L16.5625 4.45116V10.3723Z" fill="#40C16B"/>
<path d="M1.16968 6.15917C1.16968 6.61464 1.19038 6.79061 1.21108 6.54218C1.23179 6.30409 1.23179 5.93143 1.21108 5.71405C1.19038 5.50702 1.16968 5.7037 1.16968 6.15917Z" fill="#C1EC40"/>
<path d="M1.17993 9.78222C1.17993 10.5172 1.19028 10.807 1.21099 10.424C1.23169 10.041 1.23169 9.43026 1.21099 9.07831C1.19028 8.72636 1.17993 9.03691 1.17993 9.78222Z" fill="#C1EC40"/>
<path d="M1.27319 11.8525C1.27319 12.132 1.2939 12.2459 1.3146 12.0803C1.3353 11.925 1.3353 11.6973 1.3146 11.5627C1.2939 11.4385 1.27319 11.5627 1.27319 11.8525Z" fill="#C1EC40"/>
<path d="M1.37671 12.9394C1.37671 13.1982 1.39741 13.3018 1.41812 13.1672C1.43882 13.043 1.43882 12.8359 1.41812 12.7014C1.39741 12.5771 1.37671 12.6807 1.37671 12.9394Z" fill="#C1EC40"/>
<path d="M1.46997 13.7676C1.46997 13.9642 1.49067 14.0471 1.52173 13.9435C1.54243 13.8504 1.54243 13.6848 1.52173 13.5812C1.49067 13.4881 1.46997 13.5709 1.46997 13.7676Z" fill="#C1EC40"/>
<path d="M1.57349 14.4922C1.57349 14.6889 1.59419 14.7717 1.62524 14.6682C1.64595 14.575 1.64595 14.4094 1.62524 14.3059C1.59419 14.2127 1.57349 14.2955 1.57349 14.4922Z" fill="#C1EC40"/>
<path d="M1.78052 15.6309C1.78052 15.7758 1.82192 16.0242 1.86333 16.2002C1.93579 16.4797 1.94614 16.4797 1.94614 16.2519C1.94614 16.107 1.90474 15.8482 1.86333 15.6826C1.79087 15.4031 1.78052 15.4031 1.78052 15.6309Z" fill="#C1EC40"/>
<path d="M2.39106 18.2809C2.3807 18.4361 2.80512 19.699 2.90863 19.8232C2.96039 19.875 2.89828 19.5955 2.76371 19.2021C2.43246 18.2394 2.40141 18.1463 2.39106 18.2809Z" fill="#C1EC40"/>
<path d="M4.62707 23.5187C5.60012 25.0301 6.68703 26.2205 7.96027 27.1728C8.77805 27.7836 10.455 28.7877 10.9208 28.9326C11.0347 28.974 10.6827 28.7566 10.1445 28.4668C8.02238 27.2971 6.27297 25.7754 5.09289 24.0363C4.44074 23.084 4.09914 22.701 4.62707 23.5187Z" fill="#C1EC40"/>
<path d="M11.1797 29.0154C11.1797 29.0879 12.5357 29.6262 12.5875 29.5744C12.6186 29.5537 12.3908 29.4398 12.0906 29.3156C11.7904 29.2018 11.4592 29.0775 11.366 29.0361C11.2625 28.9947 11.1797 28.9844 11.1797 29.0154Z" fill="#C1EC40"/>
<path d="M13.5191 29.916C13.8089 30.0195 14.2023 30.123 14.399 30.1644C14.5957 30.1955 14.399 30.1127 13.9746 29.9678C13.0843 29.6779 12.7324 29.6262 13.5191 29.916Z" fill="#C1EC40"/>
<path d="M16.3037 30.5889C16.5935 30.6613 16.9351 30.7234 17.08 30.7234C17.225 30.7234 17.0593 30.6613 16.7177 30.5785C15.931 30.4025 15.6101 30.4129 16.3037 30.5889Z" fill="#C1EC40"/>
<path d="M17.6286 30.8166C17.7217 30.8373 17.8874 30.8373 17.9909 30.8166C18.084 30.7855 18.0012 30.7648 17.8045 30.7648C17.6079 30.7648 17.5251 30.7855 17.6286 30.8166Z" fill="#C1EC40"/>
<path d="M18.3532 30.9201C18.4463 30.9408 18.612 30.9408 18.7155 30.9201C18.8086 30.8891 18.7258 30.8684 18.5292 30.8684C18.3325 30.8684 18.2497 30.8891 18.3532 30.9201Z" fill="#C1EC40"/>
<path d="M19.285 31.0236C19.4403 31.0443 19.6887 31.0443 19.8544 31.0236C20.0096 31.0029 19.8751 30.9822 19.5645 30.9822C19.254 30.9822 19.1194 31.0029 19.285 31.0236Z" fill="#C1EC40"/>
<path d="M20.6823 31.1271C20.9204 31.1478 21.2931 31.1478 21.5105 31.1271C21.7175 31.1064 21.5208 31.0857 21.0654 31.0857C20.6099 31.0857 20.4339 31.1064 20.6823 31.1271Z" fill="#C1EC40"/>
<path d="M25.03 31.1271C25.2681 31.1478 25.6615 31.1478 25.9099 31.1271C26.148 31.1064 25.9513 31.0857 25.4648 31.0857C24.9783 31.0857 24.7816 31.1064 25.03 31.1271Z" fill="#C1EC40"/>
<path d="M22.9596 31.2307C23.1459 31.2514 23.4254 31.2514 23.5807 31.2307C23.736 31.21 23.5807 31.1893 23.2391 31.1893C22.8975 31.1893 22.7733 31.21 22.9596 31.2307Z" fill="#C1EC40"/>
<path d="M46.8408 7.34961L41.8721 12.3184H46.5924H51.323L51.4369 11.5109C51.7164 9.6166 51.7578 9.14043 51.8613 6.83203C51.9234 5.46562 51.9338 3.9543 51.8924 3.38496L51.8096 2.38086L46.8408 7.34961Z" fill="#6BC16B"/>
<path d="M2.69146 3.30215C1.83228 3.46778 1.37681 3.975 1.27329 4.87559L1.21118 5.40352L8.44692 12.6393L15.6827 19.875H9.33716C5.85903 19.875 3.002 19.8957 3.002 19.9268C3.002 20.082 3.69556 21.6865 4.01645 22.2766L4.39946 22.9805H11.5938H18.7881L22.7735 26.9762L26.7588 30.9719L27.3592 30.9201C27.6905 30.8891 28.0631 30.7959 28.1977 30.7027C28.5704 30.4647 28.8809 29.885 28.943 29.326L28.9948 28.8291L22.7838 22.6182L16.5625 16.4072V10.4447V4.49258L15.4549 4.21309C14.8338 4.06816 14.1403 3.91289 13.9022 3.87149L13.4571 3.79902V8.55039V13.3018L8.40552 8.2502C5.6313 5.47598 3.29185 3.21934 3.20903 3.21934C3.12622 3.22969 2.88813 3.26074 2.69146 3.30215Z" fill="#159640"/>
<path d="M33.9842 20.2062L29.2018 24.999L29.1707 26.5311L29.1396 28.0527H29.8125C30.1852 28.0527 31.2307 28.0113 32.1416 27.9492C40.1434 27.4627 45.4123 25.0404 48.29 20.5375C49.0561 19.3471 50.1844 16.8316 50.4639 15.7033L50.5363 15.4238H44.6566H38.7666L33.9842 20.2062Z" fill="#C1EC40"/>
<path d="M25.3096 33.9221C23.3635 34.0773 21.7486 34.9158 20.9309 36.1994C20.7549 36.4789 20.4857 37.0689 20.3201 37.5244L20.0303 38.3525V43.4766V48.6006L20.3201 49.4184C20.9826 51.292 22.0902 52.3168 23.9742 52.793C24.4297 52.9068 25.0818 53 25.4441 53H26.0859V51.5197V50.0395L25.4752 49.9152C24.6988 49.7496 24.2537 49.4494 23.8604 48.818L23.5498 48.3107L23.5188 43.7043C23.498 39.6258 23.5084 39.0254 23.6637 38.5389C23.9535 37.6279 24.8541 36.9551 25.8064 36.9551H26.0859V35.4023C26.0859 33.9842 26.0652 33.8496 25.91 33.8703C25.8064 33.8807 25.5373 33.9014 25.3096 33.9221Z" fill="#EE3342"/>
<path d="M5.8383 34.2016C5.1344 34.5121 5.1758 33.9014 5.1758 43.5283C5.1758 53.0932 5.1344 52.5031 5.7969 52.8447C6.05569 52.9793 6.87346 53 11.2108 53H16.3244L16.5315 52.7723C16.6453 52.6377 16.8006 52.4307 16.8627 52.3064C17.0283 51.9855 17.0076 51.1264 16.8213 50.6916C16.5315 49.9773 16.6246 49.998 12.4012 49.998H8.59182V47.4619V44.9258L10.5897 44.9154C11.6766 44.9051 12.691 44.874 12.836 44.8326C13.7676 44.5738 13.7987 42.576 12.8774 42.2344C12.7324 42.1723 11.7076 42.1309 10.6 42.1309H8.59182V39.5947V37.0586H12.4012C16.6246 37.0586 16.5418 37.0689 16.8317 36.3754C17.018 35.9199 17.018 35.0504 16.8213 34.6777C16.4901 34.0359 16.6867 34.0566 11.1797 34.0566C7.18401 34.067 6.09709 34.098 5.8383 34.2016Z" fill="#EE3342"/>
<path d="M51.8923 3.00195C51.8923 3.42637 51.913 3.60234 51.9337 3.38496C51.9544 3.17793 51.9544 2.82598 51.9337 2.60859C51.913 2.40156 51.8923 2.57754 51.8923 3.00195Z" fill="#6BC16B"/>
<path d="M3.21936 3.12617C3.25041 3.14687 5.56916 5.43457 8.38479 8.22949L13.5088 13.3018L8.43655 8.19844C5.65198 5.40352 3.32287 3.10547 3.27112 3.10547C3.21936 3.10547 3.19866 3.11582 3.21936 3.12617Z" fill="#C1EC40"/>
<path d="M1.91498 3.51953C1.51127 3.78867 1.65619 3.78867 2.09096 3.51953C2.27729 3.40567 2.39115 3.3125 2.32905 3.3125C2.27729 3.3125 2.09096 3.40567 1.91498 3.51953Z" fill="#6BC16B"/>
<path d="M13.4674 3.76797C13.4881 3.78867 13.6952 3.83008 13.9229 3.86113C14.2127 3.91289 14.2748 3.90254 14.1299 3.83008C13.9332 3.74726 13.3743 3.68515 13.4674 3.76797Z" fill="#6BC16B"/>
<path d="M51.9026 6.78028C51.9026 7.34961 51.9129 7.56699 51.9336 7.2668C51.9543 6.9666 51.9543 6.50078 51.9336 6.23164C51.9129 5.9625 51.9026 6.21094 51.9026 6.78028Z" fill="#6BC16B"/>
<path d="M51.7786 8.69531C51.7786 8.89199 51.7993 8.9748 51.8303 8.87129C51.851 8.77812 51.851 8.6125 51.8303 8.50898C51.7993 8.41582 51.7786 8.49863 51.7786 8.69531Z" fill="#6BC16B"/>
<path d="M22.7424 22.5664C27.7422 27.5869 28.9844 28.8912 29.0154 29.1396L29.0568 29.4502L29.0775 29.1396C29.0879 28.8602 28.4668 28.208 22.8045 22.5664L16.5107 16.3037L22.7424 22.5664Z" fill="#6BC16B"/>
<path d="M49.3458 18.6121L49.1594 18.9951L49.3665 18.7363C49.4907 18.5914 49.5838 18.4154 49.5838 18.343C49.5838 18.1463 49.5424 18.1877 49.3458 18.6121Z" fill="#6BC16B"/>
<path d="M4.10959 22.6182C4.20276 22.8148 4.29592 22.9598 4.32697 22.9391C4.36838 22.8873 4.05783 22.2559 3.98537 22.2559C3.95432 22.2559 4.01643 22.4215 4.10959 22.6182Z" fill="#6BC16B"/>
<path d="M45.6399 23.5602C45.5054 23.7051 45.464 23.7982 45.5468 23.7568C45.6814 23.7051 46.023 23.291 45.9298 23.291C45.9091 23.291 45.7849 23.4049 45.6399 23.5602Z" fill="#6BC16B"/>
<path d="M33.2595 27.9182C33.4148 27.9389 33.6425 27.9389 33.7771 27.9182C33.9013 27.8975 33.7771 27.8768 33.4872 27.8768C33.2077 27.8768 33.0939 27.8975 33.2595 27.9182Z" fill="#6BC16B"/>
<path d="M31.448 28.0217C31.624 28.0424 31.9345 28.0424 32.1209 28.0217C32.2968 28.001 32.1519 27.9803 31.7793 27.9803C31.4066 27.9803 31.2617 28.001 31.448 28.0217Z" fill="#6BC16B"/>
<path d="M28.5496 30.3404C28.3943 30.5578 28.2805 30.7441 28.3115 30.7441C28.384 30.7441 28.9119 30.0195 28.8705 29.9781C28.8498 29.9574 28.7049 30.123 28.5496 30.3404Z" fill="#6BC16B"/>
</g>
<defs>
<clipPath id="clip0_4_111">
<rect width="53" height="53" fill="white"/>
</clipPath>
</defs>
</svg>
