<svg width="52" height="52" viewBox="0 0 52 52" fill="none" xmlns="http://www.w3.org/2000/svg">
<g clip-path="url(#clip0_4_173)">
<path d="M38.807 0.111725C38.0758 0.253912 37.2734 0.507818 37.2734 0.599224C37.2734 0.639849 37.7508 1.06641 38.3297 1.55391C39.4469 2.48829 40.5844 3.72735 41.6101 5.15938C42.3414 6.175 43.5195 8.48047 43.9664 9.76016C44.2812 10.6742 44.7281 12.5938 44.8297 13.457C44.8906 13.9648 44.8906 13.9648 44.718 13.7109C42.0469 9.95313 40.1984 7.86094 37.6289 5.72813C36.4 4.69219 34.1351 3.04688 33.9523 3.04688C33.8914 3.04688 33.5664 3.37188 33.2414 3.75782C30.743 6.77423 30.1539 10.3188 31.5555 13.8531C31.9922 14.9703 32.368 15.6 33.0687 16.4633C33.993 17.5906 35.0594 18.4031 37.9234 20.15C38.807 20.6883 39.9648 21.45 40.4726 21.8359C43.1234 23.8266 44.6875 26.457 45.3476 30.0117C45.6625 31.7383 45.5508 31.6977 46.475 30.4484C49.3797 26.5383 51.3094 22.0289 51.8578 17.8445C52.0914 16.1078 52.0101 12.8578 51.6953 11.4258C51.4008 10.0242 50.6797 7.90157 50.0805 6.66251C48.3031 2.98594 45.8351 0.832819 42.6258 0.152349C41.8641 -0.0101509 39.5586 -0.0406189 38.807 0.111725Z" fill="#EE3342"/>
<path d="M17.1132 2.65078C12.7257 3.09766 8.92724 4.58047 5.97177 6.97734C4.95614 7.8 3.18896 9.67891 2.40692 10.7758C1.57411 11.9438 0.71083 13.6602 0.345205 14.8789C0.131924 15.6203 0.0709866 16.0672 0.0303616 17.2453C-0.0407322 19.2055 0.192862 20.3938 0.995205 21.9883C1.54364 23.0852 2.78271 24.7813 3.03661 24.7813C3.08739 24.7813 3.29052 24.4055 3.49364 23.9383C4.51942 21.6938 6.36786 18.7078 8.04364 16.6156C9.09989 15.2953 10.8468 13.4063 11.5679 12.7969L12.0858 12.3703L11.314 13.5789C9.85145 15.8539 8.40927 19.0633 7.66786 21.6836C7.37333 22.6992 6.85536 25.2281 6.7538 26.1117L6.68271 26.6906L7.17021 26.8531C9.23192 27.5234 11.8725 27.4422 13.7819 26.6297C15.285 26 17.0116 24.5984 17.946 23.2375C19.2866 21.2977 19.6218 20.0281 20.0077 15.4477C20.353 11.3648 20.81 9.71953 22.2319 7.56641C22.8616 6.61172 24.3952 5.02734 25.5632 4.14375C26.0811 3.74766 26.4772 3.38203 26.4366 3.34141C26.3249 3.23985 24.9741 2.97578 23.6132 2.78281C22.2624 2.6 18.3827 2.51875 17.1132 2.65078Z" fill="#EE3342"/>
<path d="M30.1639 32.1141C28.6709 32.3273 27.31 32.9164 24.3952 34.6227C22.1608 35.9328 21.4905 36.268 20.2514 36.6945C18.7991 37.1922 18.017 37.3242 16.453 37.3242C14.8381 37.3141 13.7819 37.1313 12.0452 36.5523C11.385 36.3289 10.8163 36.1766 10.7858 36.207C10.603 36.3797 12.5327 40.1883 13.6803 41.9148C17.0014 46.9219 21.1959 50.1617 25.9592 51.3906C27.828 51.8781 29.2397 52.0305 31.3319 51.9695C32.8655 51.9289 33.3225 51.8781 34.1452 51.6648C36.867 50.9438 38.817 49.4914 40.2186 47.1352C40.7061 46.3227 41.2952 44.7281 41.3967 43.9867L41.4678 43.4688L41.0717 43.6109C40.3811 43.8445 38.0655 44.3727 36.9788 44.5352C33.6577 45.0328 30.2553 44.9008 26.8124 44.1594C25.7561 43.9359 25.7459 43.9359 26.203 43.8648C26.4569 43.8242 27.1881 43.743 27.828 43.6719C30.9663 43.357 34.6834 42.3516 37.8319 40.9805C38.9186 40.5133 40.7569 39.5992 40.9194 39.4469C40.9803 39.3859 40.4217 37.8828 40.0866 37.2227C39.4061 35.8719 38.2381 34.4805 37.1616 33.7492C35.1709 32.3883 32.5405 31.7688 30.1639 32.1141Z" fill="#EE3342"/>
</g>
<defs>
<clipPath id="clip0_4_173">
<rect width="52" height="52" fill="white"/>
</clipPath>
</defs>
</svg>
