<svg width="53" height="53" viewBox="0 0 53 53" fill="none" xmlns="http://www.w3.org/2000/svg">
<path d="M49.2217 6.17989C48.3728 6.49043 47.7828 6.89414 47.1307 7.59805C45.785 9.06797 45.609 9.83399 45.7125 13.8711C45.785 17.1629 45.7436 17.5148 45.1225 18.757C44.1805 20.6307 42.2137 22.5768 40.3193 23.4877C39.1496 24.057 38.5906 24.1605 37.659 23.9639C35.4748 23.498 32.7834 23.5498 27.6904 24.1295C22.1109 24.7713 21.9557 24.7816 19.2539 24.7816C16.3969 24.792 15.3928 24.6781 13.7158 24.1502C11.3867 23.4256 10.3102 22.5768 8.84023 20.3201C8.3123 19.5127 7.6291 18.5914 7.31855 18.2705C6.83203 17.7633 6.71816 17.7012 6.35586 17.7012C6.13848 17.7012 5.87969 17.7633 5.78652 17.8357C5.50703 18.0531 5.16543 18.8295 4.9791 19.699C4.80312 20.5375 4.79277 20.5479 4.23379 20.9309C3.08477 21.7176 2.47402 22.6182 2.25664 23.8086C2.17383 24.3262 2.07031 24.5539 1.77012 24.8852C1.0248 25.7133 0.931641 25.8789 0.931641 26.4172C0.931641 27.6594 1.73906 28.4254 3.62305 28.9844C5.50703 29.5434 7.19434 30.8373 8.46758 32.7316C9.08867 33.6426 9.21289 34.067 9.21289 35.2988C9.21289 38.5596 8.64355 43.4352 8.10527 44.7188C8.03281 44.9154 7.75332 45.2674 7.50488 45.4951C7.02871 45.9402 6.87344 46.3129 6.97695 46.7373C7.03906 46.9961 7.04941 46.9961 8.26055 46.9961H9.48203L10.1549 45.992C11.4178 44.077 12.3805 41.8928 12.9084 39.7604L12.9912 39.398L13.4984 40.0709C14.3783 41.2406 14.9891 42.6691 15.4238 44.5531L15.6619 45.5676L15.3307 45.8264C14.958 46.1266 14.6578 46.6338 14.7406 46.8512C14.7924 46.9754 15.0512 46.9961 16.1691 46.9754L17.5355 46.9443L17.7736 46.5303C18.5189 45.2053 18.6328 41.665 18.0117 38.6838C17.8771 38.0109 17.8564 37.69 17.9289 37.6072C18.0117 37.5037 18.4775 37.4727 19.6576 37.4727C21.5105 37.4727 23.0322 37.3174 26.6035 36.748C28.001 36.5307 29.1396 36.3547 29.15 36.365C29.15 36.3754 29.5641 37.1 30.0609 37.9695C31.1893 39.9363 31.6758 40.9715 31.7482 41.4891C31.8104 41.9859 31.5619 43.2902 31.1479 44.5635C30.9201 45.2777 30.7648 45.5883 30.4853 45.8574C30.0609 46.2715 29.9678 46.4992 30.123 46.7891C30.2266 46.9754 30.3301 46.9961 31.1893 46.9961H32.152L32.8455 46.0748C33.715 44.9361 34.802 43.135 35.1021 42.3586C35.216 42.0377 35.4334 41.1889 35.5783 40.4746C35.7129 39.7604 35.8682 39.0461 35.8992 38.8805L35.9717 38.5906L36.9447 39.4395C38.0213 40.4021 38.4043 41.0129 38.4043 41.81C38.4043 42.0688 38.2594 43.0107 38.0937 43.901C37.8143 45.3709 37.7418 45.5676 37.4727 45.8471C37.1414 46.168 37.0586 46.6441 37.2863 46.8719C37.3691 46.9547 37.7625 46.9961 38.3629 46.9961H39.3152L39.6465 46.5613C40.1227 45.9195 41.0232 43.9941 41.4062 42.8037C41.9135 41.2303 41.9342 40.2055 41.5098 38.4043C41.1578 36.893 41.0854 35.6197 41.2924 34.626C41.5201 33.5805 41.5512 31.1996 41.3545 29.6779C41.2096 28.5496 41.1992 28.1977 41.3027 27.9596C41.3752 27.7732 41.7375 27.4523 42.2654 27.09C44.5221 25.5477 46.6648 23.2082 47.7207 21.1172C48.6523 19.285 48.818 18.1256 48.642 15.0408C48.4453 11.8008 48.6523 10.983 49.8428 10.2481C51.2816 9.35781 51.5922 9.11973 51.8199 8.73672C52.3064 7.93965 52.0477 6.78028 51.292 6.31446C50.7848 6.00391 49.8945 5.9418 49.2217 6.17989ZM4.59609 23.7258C4.88594 24.1398 4.45117 24.5125 3.83008 24.3779C3.44707 24.2951 3.43672 24.1605 3.79902 23.7879C4.13027 23.4359 4.38906 23.4152 4.59609 23.7258Z" fill="#EE3342"/>
</svg>
