<svg width="53" height="53" viewBox="0 0 53 53" fill="none" xmlns="http://www.w3.org/2000/svg">
<path d="M20.9413 3.975C17.4942 4.6375 14.9684 6.99765 14.1713 10.2998C13.7573 12.0596 13.9643 14.2437 14.6993 15.8275C14.8752 16.1898 14.9995 16.5107 14.9788 16.5211C14.9581 16.5418 14.5647 16.7902 14.0885 17.0697C11.8836 18.3947 9.86508 20.2062 8.61254 21.9971C7.46352 23.6119 6.55258 25.7443 6.28344 27.4109C6.17993 28.0734 6.13852 28.1562 5.95219 28.1355C5.76586 28.1045 5.74516 28.0217 5.73481 27.3281C5.73481 26.7381 5.6727 26.4275 5.49672 26.0549C5.20688 25.4545 4.44086 24.7713 3.96469 24.6781C3.10551 24.5125 2.19457 25.1543 1.97719 26.0549C1.72875 27.0797 2.21528 28.0113 3.26078 28.5186C3.57133 28.6738 3.79907 28.8395 3.76801 28.9016C3.73696 28.9533 3.45746 29.1293 3.15727 29.3053C2.57758 29.6262 2.42231 29.8643 2.53618 30.2266C2.71215 30.7752 3.63344 30.5061 4.58578 29.6262C5.09301 29.1604 5.14477 29.1396 5.58989 29.1914L6.05571 29.2432L6.11782 30.5371C6.24204 33.0422 6.94594 35.04 8.49868 37.3795C9.3475 38.6424 11.2211 40.5264 12.5565 41.458C13.1155 41.841 13.6227 42.2551 13.6641 42.3793C13.7159 42.4932 13.9954 43.8078 14.2956 45.2881C14.8959 48.3314 15.0202 48.6316 15.7965 48.9732C16.2209 49.1699 16.459 49.1803 19.3885 49.1492L22.5354 49.1182L22.9495 48.8387C23.5291 48.4557 23.7051 48.0209 23.7776 46.7373C23.8086 46.1473 23.8707 45.6193 23.9018 45.5676C23.9432 45.4951 29.8125 45.3295 29.8125 45.402C29.8125 45.4123 29.9264 45.9816 30.0713 46.6752C30.4129 48.3625 30.5889 48.673 31.3963 49.0146C31.7069 49.1389 32.2969 49.1699 34.6985 49.1699C36.3651 49.1699 37.7936 49.1182 38.011 49.0664C38.4768 48.9318 39.0979 48.2693 39.1807 47.8035C39.2118 47.6172 39.3256 46.2404 39.4291 44.7395C39.5327 43.2385 39.6362 42.0066 39.6569 41.9963C39.6776 41.9756 40.0709 41.6961 40.5264 41.3545C42.4311 39.957 43.6215 38.6838 44.9465 36.6445C46.0956 34.8641 46.5096 34.5846 48.4143 34.2637C49.8739 34.0152 50.3811 33.7461 50.7952 33.0422L51.085 32.5557L51.1161 29.9988C51.1575 27.09 51.085 26.5932 50.495 26.0031C50.0395 25.527 49.729 25.3924 48.9008 25.2578C46.6856 24.9266 45.9196 24.4814 45.0604 23.0322C44.8534 22.6906 44.4497 22.0902 44.1598 21.6969L43.6422 20.9826L43.6215 18.8502C43.6215 17.4734 43.5491 16.283 43.4352 15.4756C43.2075 13.8504 43.1143 13.5502 42.7934 13.2396C42.5243 12.9912 42.3897 12.9705 40.9922 13.0326C40.7956 13.043 40.4333 13.0223 40.2055 12.9912C39.8846 12.9395 39.543 12.9912 38.8805 13.1879C37.6694 13.5605 36.2512 14.1092 35.1747 14.6164L34.2741 15.0408L33.2079 14.7717C32.6178 14.6268 31.8 14.4611 31.386 14.3887L30.6303 14.2645L30.7131 13.633C31.2204 9.70976 29.3157 6.20058 25.8375 4.60644C24.3883 3.94394 22.4422 3.69551 20.9413 3.975ZM23.7258 5.01015C25.3303 5.3207 26.7278 6.09707 27.8147 7.2875C28.9327 8.51933 29.5227 9.81328 29.7401 11.5109C29.9368 13.0533 29.5538 14.7096 28.6635 16.2312C28.2184 16.9766 27.0176 18.167 26.2516 18.6225C25.6616 18.9744 25.6409 18.9848 24.6471 18.933C23.2497 18.8709 21.2104 18.933 20.2581 19.0572L19.4506 19.1607L18.7985 18.7984C16.987 17.784 15.7241 16.1691 15.1961 14.192C14.927 13.1775 14.9063 11.5109 15.1547 10.5586C16.1485 6.70781 19.9061 4.27519 23.7258 5.01015ZM40.309 14.2023C40.6713 15.9518 40.8577 18.7674 40.7024 20.1441C40.5678 21.3553 40.3711 21.8936 39.8225 22.5146C38.953 23.5187 37.452 23.8707 35.951 23.4152C34.6053 23.0012 33.2803 21.8936 32.7317 20.7238C32.504 20.2373 32.4522 19.9992 32.4625 19.3057C32.4729 17.5666 33.3631 16.5832 36.0338 15.3617C37.1725 14.8441 39.6258 13.985 39.9778 13.985C40.1952 13.9746 40.278 14.0367 40.309 14.2023ZM31.4688 15.8482C32.1209 16.0242 32.6696 16.1795 32.6903 16.2002C32.711 16.2209 32.5661 16.4486 32.3694 16.7074C31.6551 17.6287 31.3239 19.0676 31.562 20.1752C31.9553 22.0178 33.7461 23.7672 35.8475 24.3779C36.303 24.5125 36.862 24.5539 38.2284 24.5436C40.2573 24.5436 40.8163 24.4193 41.7375 23.7465C42.017 23.5498 42.2758 23.3945 42.2965 23.4152C42.3172 23.4463 42.5139 23.7465 42.7416 24.0881C43.518 25.2889 44.46 25.8271 46.4268 26.1791C48.3211 26.5104 48.3418 26.5621 48.3418 29.709C48.3418 32.1934 48.2901 32.4936 47.7829 32.8973C47.6069 33.0318 47.2756 33.1354 46.9133 33.1768C45.9713 33.2803 44.7602 33.6115 44.284 33.891C43.6422 34.2637 42.959 35.0193 42.3379 36.0234C42.0481 36.4996 41.5823 37.1725 41.3028 37.5244C40.5782 38.4354 39.0047 39.9156 37.9799 40.6506C37.4934 41.0025 37.0379 41.4166 36.9758 41.5615C36.9034 41.7168 36.7584 43.1453 36.6446 44.7602C36.3754 48.4764 36.6549 48.1348 33.86 48.1348C32.0485 48.1348 31.7793 48.1141 31.5723 47.9484C31.4067 47.8139 31.2928 47.4619 31.0547 46.3646C30.8995 45.5883 30.6924 44.8326 30.5889 44.6877C30.4957 44.5428 30.237 44.3564 30.0092 44.2633C29.6573 44.1184 29.4916 44.1184 28.8499 44.2219C28.0942 44.3461 24.3469 44.3979 22.8252 44.3047C21.4381 44.2219 21.1586 44.5428 21.0241 46.4475C20.8895 48.1865 20.9827 48.1348 18.3637 48.1348C17.2457 48.1348 16.2623 48.0934 16.1588 48.0312C15.869 47.8863 15.7862 47.5758 15.2168 44.6773C14.9166 43.2074 14.6372 41.8928 14.575 41.7686C14.5129 41.634 13.954 41.1682 13.3122 40.7127C11.2729 39.2842 9.36821 37.1414 8.38481 35.2057C7.95004 34.3361 7.48422 32.9283 7.28754 31.9139C7.08051 30.8166 7.05981 28.9119 7.23579 27.8457C7.91899 23.85 10.6518 20.258 14.8545 17.815L15.6413 17.3699L16.2831 18.0324C16.635 18.3947 17.1526 18.8502 17.4217 19.0469C17.9911 19.4506 18.0635 19.3885 16.5729 19.8439C15.4342 20.1855 15.1858 20.4133 15.5067 20.8066L15.7034 21.0551L16.8317 20.7342C18.3534 20.2994 18.7881 20.2166 20.2166 20.0303C22.4733 19.7404 25.4649 19.8543 27.825 20.3098C29.0569 20.5479 29.3053 20.5168 29.3778 20.1441C29.4502 19.8025 29.1086 19.6059 28.1045 19.4092L27.1211 19.2125L27.5145 18.902C28.2184 18.343 28.9948 17.4527 29.5124 16.6143C29.7918 16.1691 30.0196 15.7344 30.0196 15.6619C30.0196 15.4756 30.1231 15.4859 31.4688 15.8482ZM4.01645 25.941C4.327 26.1584 4.65825 26.8312 4.65825 27.2453C4.65825 27.8354 4.56508 27.8768 3.87153 27.5455C3.01235 27.1418 2.78461 26.6035 3.21938 26.0445C3.45746 25.734 3.6852 25.7029 4.01645 25.941Z" fill="#151515"/>
<path d="M22.2351 8.75741C22.2041 8.9955 22.1316 9.05761 21.7072 9.16113C20.8998 9.36816 20.4961 9.87538 20.4961 10.7139C20.4961 11.5523 20.7652 11.8836 21.7382 12.2252L22.2041 12.3908L22.2351 13.457C22.2455 14.0471 22.2144 14.575 22.1627 14.6268C22.1006 14.6889 21.9246 14.6578 21.6658 14.5336C21.3449 14.368 21.2414 14.2437 21.1172 13.8504C20.9722 13.3949 20.9308 13.3535 20.6306 13.3535C20.3097 13.3535 20.2994 13.3639 20.3615 13.6848C20.5271 14.606 20.848 14.9476 21.7175 15.165C22.173 15.2789 22.2041 15.31 22.2351 15.6723C22.2869 16.2105 22.5664 16.1795 22.5664 15.6309C22.5664 15.2685 22.5974 15.2168 22.8045 15.2168C23.2185 15.2064 23.9017 14.8234 24.1191 14.4715C24.5539 13.7469 24.4711 12.7428 23.9431 12.3184C23.7982 12.2045 23.4256 12.0389 23.1254 11.9353L22.5664 11.7594V10.6932C22.5664 10.1031 22.5871 9.62695 22.6181 9.62695C22.6492 9.62695 22.8355 9.68905 23.0218 9.77187C23.2703 9.87538 23.4152 10.0307 23.5084 10.2894C23.6222 10.6 23.6947 10.6621 23.9431 10.6621C24.2433 10.6621 24.2433 10.6518 24.1916 10.2687C24.1088 9.76152 23.5498 9.24394 22.9804 9.15077C22.6078 9.08866 22.5664 9.05761 22.5664 8.78847C22.5664 8.40546 22.2869 8.38476 22.2351 8.75741ZM22.2351 10.5482C22.2765 11.6662 22.2455 11.718 21.8418 11.5834C21.0033 11.2832 20.8791 10.1963 21.6451 9.77187C22.1213 9.50273 22.2041 9.60624 22.2351 10.5482ZM23.5291 12.9498C23.8914 13.3949 23.6636 14.3369 23.1357 14.575C22.5871 14.8234 22.5664 14.7924 22.5664 13.5605V12.4219L22.9597 12.5771C23.1668 12.6703 23.4256 12.8359 23.5291 12.9498Z" fill="#151515"/>
<path d="M18.4051 11.9147C18.1773 12.0389 18.167 12.4529 18.3637 12.6186C18.4465 12.691 18.7363 12.7324 19.0158 12.7117C19.4816 12.6807 19.5127 12.66 19.5437 12.3701C19.5748 12.1734 19.523 12.0285 19.3988 11.9354C19.1814 11.7801 18.6535 11.7594 18.4051 11.9147Z" fill="#151515"/>
<path d="M25.3407 11.9146C25.1233 12.0389 25.0923 12.4219 25.2786 12.6082C25.3511 12.6807 25.6202 12.7324 25.8997 12.7324C26.2827 12.7324 26.4173 12.691 26.5001 12.5254C26.7796 12.0078 25.9307 11.5627 25.3407 11.9146Z" fill="#151515"/>
<path d="M36.7688 26.3137C36.4686 26.6139 36.717 27.5973 37.2449 28.1769C38.6217 29.6986 41.0336 28.974 41.3648 26.9451C41.4373 26.5 41.2406 26.1894 40.899 26.1894C40.6402 26.1894 40.516 26.3654 40.4332 26.8416C40.3918 27.0693 40.2158 27.4006 40.0295 27.6076C39.6051 28.0631 38.8805 28.1873 38.3525 27.9078C37.9799 27.7008 37.5762 27.0693 37.5762 26.6863C37.5762 26.3758 37.4002 26.1894 37.1104 26.1894C36.9861 26.1894 36.8412 26.2412 36.7688 26.3137Z" fill="#151515"/>
<path d="M20.5996 5.18614C17.9703 5.86934 15.9518 7.85684 15.2582 10.4551C14.9787 11.4902 14.9994 13.2914 15.31 14.2852C15.9311 16.2934 17.1629 17.8357 18.8606 18.7363L19.4713 19.0676L20.5272 18.9434C21.1069 18.8813 22.4836 18.8398 23.6119 18.8502L25.6408 18.8813L26.2412 18.5293C26.9969 18.0738 27.9803 17.1111 28.5082 16.3141C30.0092 14.0367 30.092 10.983 28.7049 8.5918C28.4875 8.21914 27.9389 7.54629 27.4834 7.09082C26.0963 5.70371 24.2848 4.9584 22.2869 4.9791C21.728 4.9791 21.0758 5.06192 20.5996 5.18614ZM23.85 6.79063C25.3717 7.18399 26.8002 8.35371 27.4627 9.74082C27.9699 10.807 28.0838 11.4281 28.0321 12.6186C27.9907 13.3432 27.9078 13.7986 27.7112 14.3162C26.4069 17.7012 22.318 19.0469 19.2643 17.0904C18.1049 16.3451 17.0594 14.8234 16.7799 13.4777C16.1692 10.5379 17.991 7.5877 20.9102 6.76992C21.583 6.5836 23.0944 6.59395 23.85 6.79063Z" fill="#F4A938"/>
<path d="M21.6866 6.69745C19.4196 6.99765 17.5045 8.6746 16.9249 10.8691C16.7282 11.6041 16.7282 12.9394 16.9249 13.6951C17.4424 15.6723 19.0366 17.256 21.0448 17.7633C21.904 17.991 23.4256 17.9185 24.2745 17.608C25.4959 17.1732 26.7278 16.1277 27.3178 15.0201C28.4979 12.7842 28.1045 10.0721 26.3448 8.3123C25.1336 7.10117 23.3325 6.48007 21.6866 6.69745ZM22.5665 8.72636C22.5665 8.91269 22.6493 8.98515 23.0116 9.07831C23.5706 9.23359 24.0053 9.56484 24.1813 9.9996C24.4194 10.5689 24.378 10.6621 23.9122 10.6621C23.5706 10.6621 23.4981 10.6207 23.4981 10.4654C23.4981 10.1859 23.1875 9.85468 22.8563 9.77187L22.5665 9.70976V10.6932V11.6766L23.1565 11.8629C23.4877 11.9664 23.8915 12.1734 24.0571 12.3287C24.3159 12.5564 24.3676 12.691 24.409 13.2189C24.4918 14.368 24.0985 14.9684 23.084 15.2271C22.5768 15.3617 22.5665 15.3617 22.5665 15.7551C22.5665 16.076 22.5354 16.1484 22.3594 16.1484C22.1938 16.1484 22.1524 16.076 22.1524 15.7551C22.1524 15.3721 22.1317 15.3617 21.6762 15.2375C21.4071 15.165 21.0655 15.0201 20.9102 14.9062C20.5893 14.6785 20.2891 14.0264 20.2891 13.5502C20.2891 13.25 20.3098 13.2396 20.6721 13.2707C21.0344 13.3018 21.0655 13.3328 21.1483 13.7262C21.2415 14.2023 21.4485 14.4404 21.8729 14.5439L22.1524 14.6164V13.5295V12.4426L21.7694 12.3184C21.1483 12.1113 20.7342 11.8215 20.5583 11.4488C20.0821 10.4447 20.7032 9.25429 21.8211 9.04726C22.0799 8.9955 22.1524 8.93339 22.1524 8.73671C22.1524 8.56074 22.2145 8.48827 22.3594 8.48827C22.5043 8.48827 22.5665 8.56074 22.5665 8.72636ZM19.5438 11.925C19.7198 12.101 19.6991 12.484 19.5024 12.6703C19.1504 13.0223 18.1153 12.7842 18.1153 12.3494C18.1153 11.9457 18.3223 11.8008 18.8709 11.8008C19.1711 11.8008 19.4713 11.8525 19.5438 11.925ZM26.4793 11.925C26.6553 12.101 26.6346 12.484 26.4379 12.6703C26.3448 12.7635 26.1067 12.8359 25.8583 12.8359C25.175 12.8359 24.8231 12.3494 25.2165 11.9664C25.4131 11.7697 26.293 11.7387 26.4793 11.925Z" fill="#EE3342"/>
<path d="M21.4691 10.01C21.2621 10.2273 21.2206 10.3826 21.2413 10.7035C21.2621 11.0451 21.3345 11.159 21.6244 11.3557C21.821 11.4902 22.0177 11.5938 22.0591 11.5938C22.1109 11.5938 22.1523 11.1693 22.1523 10.6621C22.1523 9.79258 22.1419 9.73047 21.9453 9.73047C21.821 9.73047 21.614 9.85469 21.4691 10.01Z" fill="#EE3342"/>
<path d="M22.5664 13.5605C22.5664 14.5646 22.5768 14.5957 22.8045 14.5957C23.1461 14.5957 23.467 14.3266 23.6016 13.9332C23.7672 13.426 23.5291 12.8773 23.0426 12.6807C22.8355 12.5979 22.6492 12.5254 22.6182 12.5254C22.5871 12.5254 22.5664 12.9912 22.5664 13.5605Z" fill="#EE3342"/>
<path d="M38.6527 14.4404C36.0338 15.3203 34.0049 16.3658 33.2803 17.2043C32.4108 18.2291 32.2658 19.668 32.918 20.8895C33.8289 22.6078 36.2305 23.8604 37.8971 23.5084C39.1289 23.2393 40.0916 22.3801 40.4436 21.2414C40.8162 20.0613 40.5678 14.5439 40.133 14.1092C40.0399 14.016 39.6983 14.0885 38.6527 14.4404Z" fill="#EE3342"/>
<path d="M29.8229 16.2312C29.4088 17.049 28.6532 18.0324 27.9907 18.6018C27.6801 18.8709 27.4317 19.109 27.4317 19.14C27.4317 19.1711 27.8354 19.285 28.3323 19.3781C28.8291 19.4816 29.2639 19.5955 29.3053 19.6369C29.4916 19.8439 29.4916 20.1648 29.3053 20.4029L29.1086 20.641L27.6284 20.3615C23.6223 19.6162 20.3409 19.7715 16.6454 20.8791C15.7655 21.1379 15.7241 21.1482 15.5274 20.9619C15.3204 20.7756 15.2686 20.5375 15.3825 20.2477C15.4446 20.1027 16.4487 19.7301 17.4838 19.4816L17.8358 19.3988L17.3803 19.109C17.1319 18.9434 16.635 18.5086 16.2727 18.1359L15.6309 17.4734L14.7717 17.96C10.8899 20.1959 8.26059 23.5705 7.38071 27.4627C7.15298 28.4875 7.15298 31.034 7.39106 32.0691C8.15708 35.4852 10.186 38.4043 13.3432 40.6299C13.985 41.0854 14.575 41.5719 14.6475 41.7168C14.7096 41.8617 15.0202 43.2488 15.3307 44.8016C15.7241 46.7994 15.9415 47.6896 16.076 47.8346C16.2416 48.0209 16.4176 48.0312 18.3741 48.0312H20.4858L20.6825 47.7828C20.8377 47.5758 20.8895 47.2756 20.9516 46.375C21.0241 45.1846 21.1276 44.8223 21.5313 44.46C21.7487 44.2633 21.904 44.2529 24.937 44.2529C26.676 44.2529 28.4875 44.2115 28.9534 44.1598C30.4647 43.9941 30.7235 44.2529 31.1272 46.2818C31.3135 47.1824 31.4688 47.7207 31.593 47.8449C31.7586 48.0105 31.9864 48.0312 33.8807 48.0312C35.8372 48.0312 36.0028 48.0209 36.1684 47.8346C36.3237 47.6689 36.3858 47.1617 36.5514 44.7498C36.6653 43.166 36.8102 41.7375 36.8723 41.5719C36.9448 41.3855 37.3588 41.0025 37.9799 40.5471C39.7811 39.2221 41.1579 37.7625 42.2758 35.9717C43.5491 33.9428 44.2737 33.508 47.1307 33.0732C47.3481 33.0318 47.669 32.8766 47.8553 32.7109L48.1866 32.4211L48.2176 29.8746C48.259 26.5311 48.2694 26.5518 46.4579 26.2516C44.429 25.9203 43.4249 25.351 42.6278 24.0674C42.4415 23.7775 42.2862 23.5291 42.2758 23.5084C42.2551 23.498 42.0895 23.6016 41.9032 23.7465C41.7065 23.8914 41.2717 24.1398 40.9405 24.2951C40.3401 24.5746 40.2469 24.585 38.4458 24.616C36.303 24.6574 35.7129 24.5539 34.5225 23.9328C32.4004 22.8148 31.1272 20.6203 31.4688 18.6639C31.593 17.8979 31.9657 17.0387 32.359 16.5729L32.6075 16.2727L32.1209 16.107C31.5206 15.9207 30.3922 15.6309 30.237 15.6309C30.1749 15.6309 29.9885 15.9 29.8229 16.2312ZM37.4313 26.2412C37.5762 26.3344 37.6694 26.5518 37.7108 26.8312C37.804 27.4937 38.3319 27.9492 39.0151 27.9492C39.75 27.9492 40.3711 27.3695 40.3711 26.676C40.3711 26.324 40.7127 26.0445 41.044 26.1273C41.7583 26.3137 41.4995 27.6697 40.5885 28.4979C39.1704 29.7814 36.9034 28.9016 36.5825 26.9451C36.5307 26.5932 36.5618 26.4793 36.7377 26.3033C36.9965 26.0445 37.1415 26.0342 37.4313 26.2412Z" fill="#EE3342"/>
</svg>
