<svg width="53" height="53" viewBox="0 0 53 53" fill="none" xmlns="http://www.w3.org/2000/svg">
<path d="M18.612 3.48848C18.5292 3.59199 18.4257 3.75762 18.3947 3.86113C18.3326 4.01641 20.4236 24.823 20.5478 25.4338C20.5995 25.6615 20.6513 25.6719 21.4794 25.6719H22.3593L22.3076 25.382C22.2765 25.2268 21.7589 20.3305 21.1689 14.4922C19.9474 2.65 20.082 3.38496 19.2331 3.3332C18.8915 3.3125 18.7363 3.35391 18.612 3.48848Z" fill="#32B8BB"/>
<path d="M3.3125 7.45312V8.28125H9.9375H16.5625V7.45312V6.625H9.9375H3.3125V7.45312Z" fill="#32B8BB"/>
<path d="M29.709 6.76992C29.709 6.84238 29.5227 7.27715 29.2949 7.73261C28.6428 9.03691 27.5145 10.0514 26.2205 10.5172C25.9203 10.6207 25.6719 10.7346 25.6719 10.7656C25.6719 10.7967 25.9203 10.9105 26.2205 11.0141C27.5145 11.4799 28.6428 12.4943 29.2949 13.7986C29.5227 14.2541 29.709 14.6889 29.709 14.7613C29.709 15.0719 29.8746 14.8855 30.0609 14.3576C30.5268 13.0637 31.5412 11.9353 32.8455 11.2832C33.301 11.0555 33.7357 10.8691 33.8082 10.8691C33.891 10.8691 33.9531 10.8174 33.9531 10.7656C33.9531 10.7035 33.891 10.6621 33.8082 10.6621C33.4148 10.6621 31.9553 9.78222 31.3756 9.20254C30.7959 8.62285 29.916 7.16328 29.916 6.76992C29.916 6.68711 29.8746 6.625 29.8125 6.625C29.7607 6.625 29.709 6.68711 29.709 6.76992Z" fill="#EE3342"/>
<path d="M4.14062 19.2539C4.14062 28.4357 4.14062 28.5703 4.34766 28.7773C4.54434 28.974 4.68926 28.9844 9.9375 28.9844C15.1857 28.9844 15.3307 28.974 15.5273 28.7773C15.7344 28.5703 15.7344 28.4357 15.7344 19.2539V9.9375H9.9375H4.14062V19.2539ZM10.7449 11.8215C10.9416 11.8836 11.2418 12.0596 11.4178 12.2148C11.6041 12.3701 12.2252 12.7428 12.8049 13.0326C13.6641 13.457 13.8814 13.6123 13.9332 13.8297C14.0367 14.2334 13.8607 14.6268 13.5295 14.7406C13.2604 14.8441 13.1568 14.8234 12.515 14.5543C12.3908 14.5025 12.308 14.5957 12.1734 14.9373C11.6559 16.2934 10.0721 16.8834 8.79883 16.1898C7.34961 15.4031 7.08047 13.5502 8.23984 12.3805C8.94375 11.6766 9.72012 11.5109 10.7449 11.8215Z" fill="#32B8BB"/>
<path d="M9.31641 13.457C9.18184 13.5916 9.10938 13.7986 9.10938 14.0781C9.10938 14.6268 9.38887 14.9062 9.9375 14.9062C10.4861 14.9062 10.7656 14.6268 10.7656 14.0781C10.7656 13.5295 10.4861 13.25 9.9375 13.25C9.65801 13.25 9.45098 13.3225 9.31641 13.457Z" fill="#32B8BB"/>
<path d="M44.9258 11.8008C44.7602 11.9664 44.7188 12.1424 44.7188 12.6289V13.25H44.0977C43.3213 13.25 43.0625 13.457 43.0625 14.0781C43.0625 14.6992 43.3213 14.9062 44.0977 14.9062H44.7188V15.5273C44.7188 16.3037 44.9258 16.5625 45.5469 16.5625C46.168 16.5625 46.375 16.3037 46.375 15.5273V14.9062H46.9961C47.7725 14.9062 48.0312 14.6992 48.0312 14.0781C48.0312 13.457 47.7725 13.25 46.9961 13.25H46.375V12.6289C46.375 11.8525 46.168 11.5938 45.5469 11.5938C45.2674 11.5938 45.0604 11.6662 44.9258 11.8008Z" fill="#EE3342"/>
<path d="M35.2574 18.8709C35.0607 19.2953 34.7191 19.7508 34.274 20.1959C33.8289 20.641 33.3734 20.9826 32.949 21.1793C32.5867 21.3449 32.2969 21.5002 32.2969 21.5312C32.2969 21.5623 32.5867 21.7176 32.949 21.8832C33.8082 22.2869 34.8537 23.3324 35.2574 24.1916C35.423 24.5539 35.5783 24.8438 35.6094 24.8438C35.6404 24.8438 35.7957 24.5539 35.9613 24.1916C36.365 23.3324 37.4105 22.2869 38.2697 21.8832C38.632 21.7176 38.9219 21.5623 38.9219 21.5312C38.9219 21.5002 38.632 21.3449 38.2697 21.1689C37.4002 20.7549 36.3547 19.7197 35.9613 18.8709C35.7957 18.5086 35.6404 18.2188 35.6094 18.2188C35.5783 18.2188 35.423 18.5086 35.2574 18.8709Z" fill="#EE3342"/>
<path d="M20.7031 28.1562V28.9844H34.9883C49.1389 28.9844 49.2734 28.9844 49.4805 28.7773C49.615 28.6428 49.6875 28.4357 49.6875 28.1562C49.6875 27.8768 49.615 27.6697 49.4805 27.5352C49.2734 27.3281 49.1389 27.3281 34.9883 27.3281H20.7031V28.1562Z" fill="#32B8BB"/>
<path d="M6.625 35.3092C6.625 40.5678 6.63535 40.6299 7.38066 42.0791C7.96035 43.1971 8.9748 44.2115 10.1031 44.8016C11.4902 45.5158 11.718 45.5469 16.3658 45.5469H20.465L20.8584 44.077C21.0654 43.2592 21.2725 42.5139 21.2932 42.4104C21.3449 42.2447 21.1275 42.2344 17.8461 42.2344C14.0574 42.2344 13.1879 42.1619 12.3494 41.7686C11.6455 41.4477 10.7242 40.5264 10.4033 39.8225C10.01 38.9736 9.9375 38.1145 9.9375 34.2326V30.6406H8.28125H6.625V35.3092Z" fill="#32B8BB"/>
<path d="M12.4219 30.7752C12.4219 30.858 12.515 31.2824 12.6289 31.7172C13.5088 35.1539 17.018 38.4146 21.4277 39.8949C23.4566 40.5781 23.7154 40.5885 30.4543 40.5471C36.158 40.516 36.541 40.5057 37.4209 40.2986C39.3773 39.8328 40.7541 39.2531 42.3172 38.1973C44.5014 36.7377 46.5406 34.3465 47.9898 31.5412L48.4557 30.6406H30.4336C15.4445 30.6406 12.4219 30.6613 12.4219 30.7752Z" fill="#32B8BB"/>
<path d="M22.3076 44.5842C21.9143 46.0541 21.5416 47.3791 21.4588 47.5344C21.3242 47.8035 21.0965 47.907 20.2684 48.083C19.7197 48.1865 19.0469 48.9629 19.0469 49.4805V49.6875H29.8125H40.5781V49.4805C40.5781 48.9629 39.9053 48.1865 39.3566 48.083C38.601 47.9277 38.2904 47.7932 38.1869 47.5965C38.1248 47.4826 37.7521 46.199 37.3691 44.7498C36.9758 43.3006 36.6342 42.0895 36.6135 42.0688C36.5928 42.048 35.8785 42.0791 35.0297 42.1309C31.9139 42.3275 24.7713 42.2344 23.3738 41.9756L23.0219 41.9031L22.3076 44.5842Z" fill="#32B8BB"/>
</svg>
