<svg width="43" height="43" viewBox="0 0 43 43" fill="none" xmlns="http://www.w3.org/2000/svg">
<path d="M19.1904 0.117577C16.6288 0.537498 14.5208 1.36055 12.4716 2.72949C8.97787 5.06425 6.55072 8.69238 5.66048 12.8916C5.39173 14.1346 5.29095 16.6373 5.45052 17.9475C5.91244 21.6848 7.87767 26.2367 11.1279 31.0826C12.5976 33.2662 14.9156 36.2561 16.78 38.3809C17.8298 39.565 20.0218 41.9166 20.6013 42.4793C21.0968 42.9496 21.1808 43 21.5167 43C21.8695 43 21.8947 42.9832 22.9865 41.8746C27.0681 37.7006 30.9314 32.8043 33.3585 28.7311C35.6765 24.8426 37.0454 21.374 37.5074 18.2246C37.7089 16.7969 37.6333 14.2689 37.3394 12.8916C35.9872 6.50039 31.1329 1.64609 24.7333 0.285545C23.8515 0.0923805 23.482 0.0587883 21.7939 0.0419922C20.4669 0.0167961 19.6523 0.0419922 19.1904 0.117577ZM23.3476 9.02832C24.179 9.23828 25.4976 9.91016 26.1611 10.4729C29.4533 13.2443 29.722 18.1154 26.7574 21.2312C24.5906 23.5072 20.9456 24.1035 18.1574 22.6338C16.2341 21.6176 14.8568 19.8623 14.3613 17.8047C14.1345 16.8305 14.1345 15.4195 14.3613 14.4453C14.7224 12.9504 15.663 11.4471 16.864 10.4477C17.5023 9.91855 18.846 9.22988 19.6523 9.01992C20.7525 8.73438 22.2222 8.73438 23.3476 9.02832Z" fill="url(#paint0_linear_4_32)"/>
<defs>
<linearGradient id="paint0_linear_4_32" x1="21.4973" y1="43" x2="21.4973" y2="0.0325432" gradientUnits="userSpaceOnUse">
<stop stop-color="#0092B3"/>
<stop offset="1" stop-color="#0092B3"/>
</linearGradient>
</defs>
</svg>
