<svg width="43" height="43" viewBox="0 0 43 43" fill="none" xmlns="http://www.w3.org/2000/svg">
<g clip-path="url(#clip0_4_28)">
<path d="M18.7285 0.134438C10.1453 1.23463 3.01501 7.44948 0.713843 15.8311C0.218335 17.6536 0.0671632 18.7202 0.025171 20.8954C-0.0252196 23.037 0.0503663 24.0952 0.386304 25.7497C1.4949 31.3598 4.87107 36.3485 9.70017 39.5231C12.4801 41.3456 15.5287 42.4626 18.8965 42.8825C20.173 43.0421 22.8605 43.0337 24.1875 42.8741C30.4695 42.093 36.0797 38.5741 39.5818 33.2159C41.3455 30.52 42.4709 27.421 42.874 24.1876C43.042 22.827 43.042 20.1731 42.874 18.8126C42.1013 12.5641 38.5992 6.96237 33.2998 3.47702C30.5367 1.66295 27.4629 0.537563 24.1875 0.126038C22.9025 -0.0335312 19.9799 -0.0251312 18.7285 0.134438ZM31.7377 13.2696C32.0232 13.5635 32.124 13.9583 32.0484 14.4706C31.872 15.554 28.4455 31.5026 28.3279 31.7714C28.1515 32.1745 27.7736 32.502 27.4797 32.502C27.0597 32.4936 26.581 32.1913 23.9943 30.2848C22.5666 29.235 21.3488 28.3532 21.2816 28.328C21.206 28.3028 20.6349 28.7983 19.7279 29.6549C18.2162 31.1079 18.1826 31.1331 17.8047 31.2423C17.5779 31.3094 17.5695 31.301 17.6031 30.9987C17.6199 30.8307 17.6955 29.8061 17.7627 28.7227C17.8299 27.6393 17.9138 26.5559 17.939 26.3124L17.981 25.8756L23.0201 21.3321C26.2283 18.4262 28.0508 16.7298 28.0508 16.629C28.0508 16.4106 27.782 16.3434 27.4461 16.4862C27.2949 16.5534 24.4058 18.3506 21.0297 20.4755L14.8904 24.3387L12.7572 23.6753C11.5814 23.3057 10.3133 22.911 9.94372 22.7934C8.82673 22.4575 8.54119 22.0124 9.10388 21.5169C9.27185 21.3741 9.87654 21.0801 10.5904 20.803C11.2539 20.5426 16.0494 18.6866 21.248 16.6794C28.6302 13.8323 30.7802 13.026 31.091 13.026C31.4185 13.0176 31.5193 13.0596 31.7377 13.2696Z" fill="url(#paint0_linear_4_28)"/>
</g>
<defs>
<linearGradient id="paint0_linear_4_28" x1="21.5055" y1="42.998" x2="21.5055" y2="0.010479" gradientUnits="userSpaceOnUse">
<stop stop-color="#0392B3"/>
<stop offset="1" stop-color="#0092B3"/>
</linearGradient>
<clipPath id="clip0_4_28">
<rect width="43" height="43" fill="white"/>
</clipPath>
</defs>
</svg>
