<svg width="26" height="26" viewBox="0 0 26 26" fill="none" xmlns="http://www.w3.org/2000/svg">
<g clip-path="url(#clip0_4_39)">
<path d="M1.43711 0.0711288C0.914062 0.238707 0.401172 0.69066 0.1625 1.20863L0.0253906 1.49808L0.0304687 2.76761C0.0304687 4.07269 0.0914062 4.78871 0.309766 6.06839C1.45742 12.8934 5.48945 18.845 11.4512 22.5215C12.3195 23.0547 14.102 23.9536 15.0312 24.3192C17.8598 25.4364 21.0031 26.0457 23.6641 25.9899C24.4918 25.9746 24.507 25.9746 24.8371 25.8121C25.2434 25.609 25.6445 25.2028 25.8375 24.7965L25.9746 24.502V21.5313V18.5606L25.8375 18.266C25.5836 17.7227 25.0199 17.2453 24.4766 17.1184C24.3496 17.0879 23.8012 17.0422 23.2578 17.0118C21.8461 16.9356 20.7594 16.7528 19.6066 16.3922C18.977 16.1993 18.5098 16.1586 18.0781 16.2703C17.6566 16.377 17.616 16.4075 15.8031 17.7836L14.2848 18.9313L13.7059 18.6012C10.923 17.0067 9.03398 15.1328 7.45977 12.3957L7.06367 11.7203L8.21641 10.1918C8.85117 9.35394 9.41992 8.5973 9.48594 8.51097C9.65859 8.27738 9.80078 7.75941 9.80078 7.36839C9.80078 7.12464 9.75 6.84535 9.62305 6.41878C9.22695 5.08324 9.05937 4.05746 8.98828 2.58988C8.94766 1.64535 8.91211 1.45746 8.69375 1.03597C8.54141 0.736362 8.14023 0.370737 7.76953 0.187925L7.43945 0.025425L4.54492 0.0152683C2.24961 0.0051136 1.60469 0.0203476 1.43711 0.0711288Z" fill="url(#paint0_linear_4_39)"/>
</g>
<defs>
<linearGradient id="paint0_linear_4_39" x1="13" y1="25.9934" x2="13" y2="0.0122986" gradientUnits="userSpaceOnUse">
<stop stop-color="#0092B3"/>
<stop offset="1" stop-color="#0092B3"/>
</linearGradient>
<clipPath id="clip0_4_39">
<rect width="26" height="26" fill="white"/>
</clipPath>
</defs>
</svg>
