<svg width="41" height="42" viewBox="0 0 41 42" fill="none" xmlns="http://www.w3.org/2000/svg">
<path d="M21.8515 3.6173C20.1199 3.11796 18.2988 3.80105 16.7561 5.52266C16.2771 6.05657 16.1424 6.2712 15.58 7.39975C15.061 8.42268 14.9129 8.79422 14.8064 9.2865C14.0046 13.0497 16.0185 15.9166 19.081 15.3795C22.0439 14.8564 24.6012 11.359 24.5968 7.83933C24.5964 6.50304 24.1807 5.36878 23.3914 4.57555C22.9856 4.16427 22.3362 3.75886 21.8515 3.6173Z" fill="#EE3342"/>
<path d="M32.1524 8.75963C30.9571 8.39121 29.4763 8.72578 28.2735 9.63518C25.1417 11.9828 23.9941 16.7371 25.9459 19.2458C27.588 21.3548 30.7107 20.9567 32.984 18.3449C33.3165 17.9562 33.5203 17.6214 34.0245 16.5911C34.5758 15.4662 34.6697 15.2221 34.815 14.5219C35.374 11.7102 34.3173 9.42944 32.1524 8.75963Z" fill="#EE3342"/>
<path d="M8.93374 6.64175C7.86115 6.37992 6.78301 6.76065 5.75436 7.74775C5.29675 8.18321 5.2275 8.28503 4.64697 9.44999C4.13553 10.4949 4.01264 10.7972 3.89573 11.3661C3.46752 13.5068 3.73036 15.3192 4.64847 16.5039C5.01045 16.966 5.09594 17.0359 5.74832 17.361C6.36363 17.6676 6.51536 17.7159 6.96933 17.7149C7.57471 17.7258 8.46909 17.4352 8.98254 17.0549C10.7686 15.7363 11.9342 12.636 11.5734 10.1658C11.4709 9.40579 11.0593 8.31903 10.7121 7.86427C10.238 7.23718 9.60316 6.80265 8.93374 6.64175Z" fill="#EE3342"/>
<path d="M37.379 20.835C36.7097 20.6923 36.0422 20.7505 35.2142 21.0378C33.4258 21.6553 31.9977 22.9796 31.007 24.9491C30.4626 26.023 30.2627 26.8141 30.2966 27.749C30.3604 29.5895 31.8629 30.9199 33.7515 30.7885C35.2085 30.6875 37.0364 29.5079 38.2625 27.883C38.7004 27.3014 39.3568 25.947 39.5427 25.2398C39.8679 23.993 39.6531 22.6226 39.0153 21.8412C38.6422 21.3827 37.9632 20.9625 37.379 20.835Z" fill="#EE3342"/>
<path d="M19.2232 19.4768C18.1136 19.1965 16.9209 19.1384 15.8818 19.3295C15.2996 19.4393 7.10807 21.8378 6.09255 22.2043C4.81202 22.6569 3.90374 23.4767 3.27967 24.729C2.08958 27.1172 2.66406 29.9757 4.65948 31.5427C5.63677 32.3114 6.89942 32.7861 9.22504 33.2634C11.5248 33.7368 11.9911 33.8783 13.1729 34.4036C14.5698 35.0361 15.4051 35.6069 17.2603 37.1767C19.5171 39.0921 20.2187 39.5598 21.3173 39.8437C23.7477 40.4822 26.4127 39.2199 27.581 36.8754C28.2123 35.6085 28.3198 34.3714 27.9175 33.0803C27.5757 31.9647 24.5659 24.0207 24.2732 23.4567C23.924 22.7646 23.1106 21.7412 22.4859 21.1936C21.7384 20.5393 20.1775 19.716 19.2232 19.4768Z" fill="#EE3342"/>
</svg>
